<svg xmlns="http://www.w3.org/2000/svg" viewBox="0 0 512 512" width="512" height="512">
  <!-- 배경 -->
  <rect width="512" height="512" rx="96" fill="#4F46E5"/>

  <!-- 책 더미 (왼쪽) -->
  <rect x="100" y="320" width="120" height="120" rx="12" fill="#7C3AED"/>
  <rect x="110" y="200" width="100" height="130" rx="12" fill="#818CF8"/>
  <rect x="118" y="100" width="84" height="110" rx="12" fill="#A5B4FC"/>

  <!-- 책 더미 (오른쪽) -->
  <rect x="292" y="360" width="120" height="80" rx="12" fill="#10B981"/>
  <rect x="300" y="240" width="104" height="128" rx="12" fill="#34D399"/>
  <rect x="308" y="120" width="88" height="128" rx="12" fill="#6EE7B7"/>

  <!-- 중앙 책 (크게) -->
  <rect x="196" y="140" width="120" height="220" rx="16" fill="white"/>
  <rect x="210" y="160" width="92" height="8" rx="4" fill="#C7D2FE"/>
  <rect x="210" y="178" width="72" height="6" rx="3" fill="#E0E7FF"/>
  <rect x="210" y="216" width="92" height="6" rx="3" fill="#E0E7FF"/>
  <rect x="210" y="230" width="80" height="6" rx="3" fill="#E0E7FF"/>
  <rect x="210" y="244" width="88" height="6" rx="3" fill="#E0E7FF"/>
  <rect x="210" y="270" width="92" height="6" rx="3" fill="#E0E7FF"/>
  <rect x="210" y="284" width="76" height="6" rx="3" fill="#E0E7FF"/>
  <rect x="210" y="298" width="84" height="6" rx="3" fill="#E0E7FF"/>

  <!-- 별 (완독 상징) -->
  <text x="256" y="408" text-anchor="middle" font-size="48" fill="#FCD34D">⭐</text>
</svg>
